<svg preserveAspectRatio="none" overflow="visible" style="display: block;" width="40" height="40" viewBox="0 0 40 40" fill="none" xmlns="http://www.w3.org/2000/svg">
<g id="Icon">
<path id="Vector" d="M16.668 16.6667V8.33341C16.668 7.89139 16.8436 7.46746 17.1561 7.1549C17.4687 6.84234 17.8926 6.66675 18.3346 6.66675H21.668C22.11 6.66675 22.5339 6.84234 22.8465 7.1549C23.159 7.46746 23.3346 7.89139 23.3346 8.33341V16.6667" stroke="white" stroke-width="2.5" stroke-linecap="round" stroke-linejoin="round"/>
<path id="Vector_2" d="M23.332 10C25.9842 10 28.5277 11.0536 30.4031 12.9289C32.2785 14.8043 33.332 17.3478 33.332 20V25" stroke="white" stroke-width="2.5" stroke-linecap="round" stroke-linejoin="round"/>
<path id="Vector_3" d="M6.66797 25V20C6.66797 17.3478 7.72154 14.8043 9.5969 12.9289C11.4723 11.0536 14.0158 10 16.668 10" stroke="white" stroke-width="2.5" stroke-linecap="round" stroke-linejoin="round"/>
<path id="Vector_4" d="M34.9987 25H4.9987C4.07822 25 3.33203 25.7462 3.33203 26.6667V30C3.33203 30.9205 4.07822 31.6667 4.9987 31.6667H34.9987C35.9192 31.6667 36.6654 30.9205 36.6654 30V26.6667C36.6654 25.7462 35.9192 25 34.9987 25Z" stroke="white" stroke-width="2.5" stroke-linecap="round" stroke-linejoin="round"/>
</g>
</svg>
